<svg id="visual" viewBox="0 0 960 540" width="960" height="540" xmlns="http://www.w3.org/2000/svg" xmlns:xlink="http://www.w3.org/1999/xlink" version="1.1"><path d="M0 131L87 87L175 104L262 98L349 66L436 93L524 82L611 147L698 114L785 125L873 50L960 114L960 0L873 0L785 0L698 0L611 0L524 0L436 0L349 0L262 0L175 0L87 0L0 0Z" fill="#ff6854"></path><path d="M0 217L87 179L175 141L262 179L349 136L436 174L524 174L611 185L698 190L785 163L873 120L960 190L960 112L873 48L785 123L698 112L611 145L524 80L436 91L349 64L262 96L175 102L87 85L0 129Z" fill="#ff614c"></path><path d="M0 271L87 255L175 206L262 249L349 228L436 239L524 249L611 239L698 276L785 212L873 201L960 298L960 188L873 118L785 161L698 188L611 183L524 172L436 172L349 134L262 177L175 139L87 177L0 215Z" fill="#ff5943"></path><path d="M0 428L87 352L175 411L262 449L349 357L436 433L524 336L611 401L698 455L785 303L873 390L960 455L960 296L873 199L785 210L698 274L611 237L524 247L436 237L349 226L262 247L175 204L87 253L0 269Z" fill="#ff513a"></path><path d="M0 541L87 541L175 541L262 541L349 541L436 541L524 541L611 541L698 541L785 541L873 541L960 541L960 453L873 388L785 301L698 453L611 399L524 334L436 431L349 355L262 447L175 409L87 350L0 426Z" fill="#ff4830"></path></svg>